# xmcd
#
# Track frame offsets:
#	150
#	18137
#	34562
#	55270
#	72707
#	92277
#	113700
#	134270
#	150200
#	170070
#	187792
#	206392
#	225242
#	242672
#	259505
#	278775
#
# Disc length: 3978
#
# Revision: 2
# Processed by: cddbd v1.5.1PL0 Copyright (c) Steve Scherf et al.
# Submitted via: libkcddb 0.10
# Normalized: r1:DSETVAR1,TDELIM( - )
#
DISCID=bf0f8810
DTITLE=Various Artist - Soul Desire 3
DYEAR=1900
DGENRE=
TTITLE0=Will Downing - A Love Supreme (Radio Mix)
TTITLE1=Mica Paris - My One Temptation
TTITLE2=Sade - The Sweetest Taboo
TTITLE3=Luther Vandross - Never Too Much
TTITLE4=Shalamar - I Can Make You Feel Good
TTITLE5=SOS Band - The Finest
TTITLE6=Mtume - Juicy Fruit
TTITLE7=The Pasadenas - I'm Doing Fine Now
TTITLE8=Brenda Russell - Piano In The Dark
TTITLE9=Des'ree - Feel So High
TTITLE10=Cover Girls - Wishing On A Star
TTITLE11=Regina Belle - Baby Come To Me
TTITLE12=Marvin Gaye - My Love Is Waiting
TTITLE13=The Manhattans - Shining Star
TTITLE14=Heatwave - Mind Blowing Decissions
TTITLE15=Isley Jasper Isley - Caravan Of Love
EXTD=
EXTT0=
EXTT1=
EXTT2=
EXTT3=
EXTT4=
EXTT5=
EXTT6=
EXTT7=
EXTT8=
EXTT9=
EXTT10=
EXTT11=
EXTT12=
EXTT13=
EXTT14=
EXTT15=
PLAYORDER=
